<svg xmlns="http://www.w3.org/2000/svg" viewBox="0 0 276.03 50.23"><defs><style>.cls-1{fill:#37b669;}.cls-2{fill:#fff;}.cls-3{fill:#231f20;}</style></defs><g id="Layer_2" data-name="Layer 2"><g id="Layer_1-2" data-name="Layer 1"><g id="lite"><path id="Shape-path" class="cls-1" d="M269.08,0H220.15a6.92,6.92,0,0,0-6.9,6.83v43.4l9.52-9.34h46.36a6.92,6.92,0,0,0,6.9-6.83V6.83A6.93,6.93,0,0,0,269.08,0Z"/><path id="Shape-path-3" class="cls-2" d="M260.07,15.85c5.24,0,7.63,4.14,7.63,8a1.74,1.74,0,0,1-1.84,1.77h-9.65c.46,2.32,2.11,3.55,4.73,3.55a7.94,7.94,0,0,0,3.86-.86,1.34,1.34,0,0,1,.74-.18,1.64,1.64,0,0,1,1.66,1.63,1.78,1.78,0,0,1-1,1.51,9.8,9.8,0,0,1-5.51,1.36c-5.15,0-8.28-3.14-8.28-8.38C252.39,18.08,256.53,15.85,260.07,15.85Zm-15.36-2.69a1,1,0,0,1,1,1.05v1.91h2.94a1.64,1.64,0,1,1,0,3.28h-2.89V28c0,1.23.64,1.32,1.51,1.32a4.6,4.6,0,0,0,1.06-.14,3.92,3.92,0,0,1,.74-.13,1.57,1.57,0,0,1,1.56,1.54,1.66,1.66,0,0,1-1,1.42,6.23,6.23,0,0,1-2.72.59c-3.17,0-4.87-1.5-4.87-4.37V19.4h-1.66a1,1,0,0,1-1-1,1.14,1.14,0,0,1,.41-.87l4-4A1.28,1.28,0,0,1,244.71,13.16ZM226.08,9.43a1.83,1.83,0,0,1,1.84,1.82V30.6a1.82,1.82,0,0,1-3.63,0V11.25A1.79,1.79,0,0,1,226.08,9.43ZM234.64,16a1.84,1.84,0,0,1,1.84,1.82V30.6a1.82,1.82,0,0,1-3.64,0V17.8A1.8,1.8,0,0,1,234.64,16Zm25.47,3.1a3.8,3.8,0,0,0-3.9,3.46h7.86A3.88,3.88,0,0,0,260.11,19.08Zm-25.38-9.2a2,2,0,0,1,2,2V12a2,2,0,0,1-2,1.95h-.18a2,2,0,0,1-2-1.95v-.14a2,2,0,0,1,2-2Z"/></g><path class="cls-3" d="M12.88,49H3.69a3.79,3.79,0,0,1-2.84-.89A4,4,0,0,1,0,45.24V22.64a3.93,3.93,0,0,1,.87-2.86,3.87,3.87,0,0,1,2.82-.87h9.74a23.82,23.82,0,0,1,3.74.26,8,8,0,0,1,2.83,1,7.38,7.38,0,0,1,1.88,1.61A7,7,0,0,1,23.13,24a7.16,7.16,0,0,1,.43,2.49q0,4.52-4.51,6.61Q25,35,25,40.4a8.24,8.24,0,0,1-1.29,4.54,7.81,7.81,0,0,1-3.49,3,12.69,12.69,0,0,1-3.16.81A33.65,33.65,0,0,1,12.88,49ZM6.09,23.48v7.77h5.58a11.14,11.14,0,0,0,3.52-.43,3.3,3.3,0,0,0,1.89-1.64,3.69,3.69,0,0,0,.52-1.93,3,3,0,0,0-1.62-3,12.38,12.38,0,0,0-5-.75Zm6.34,12.14H6.09V44.4h6.54q6.18,0,6.18-4.45a3.63,3.63,0,0,0-1.6-3.3A8.91,8.91,0,0,0,12.43,35.62Z"/><path class="cls-3" d="M50.82,38.1A13.26,13.26,0,0,1,50,42.72a10.1,10.1,0,0,1-2.26,3.63,10,10,0,0,1-3.52,2.33,12.72,12.72,0,0,1-4.62.8,12,12,0,0,1-4.57-.82,10,10,0,0,1-3.52-2.34,10.11,10.11,0,0,1-2.25-3.61,13.08,13.08,0,0,1-.77-4.61,13.35,13.35,0,0,1,.78-4.65,10.14,10.14,0,0,1,2.23-3.61,9.85,9.85,0,0,1,3.53-2.31,13.36,13.36,0,0,1,9.19,0,10,10,0,0,1,3.54,2.34,9.94,9.94,0,0,1,2.25,3.61A13.31,13.31,0,0,1,50.82,38.1Zm-5.62,0a8.37,8.37,0,0,0-1.51-5.33,4.89,4.89,0,0,0-4-1.91,5.07,5.07,0,0,0-2.89.85,5.44,5.44,0,0,0-1.93,2.52,10.22,10.22,0,0,0-.67,3.87,10.26,10.26,0,0,0,.66,3.84,5.53,5.53,0,0,0,1.91,2.51,5,5,0,0,0,2.92.87,4.87,4.87,0,0,0,4-1.92A8.31,8.31,0,0,0,45.2,38.1Z"/><path class="cls-3" d="M76.19,38.1a13.26,13.26,0,0,1-.78,4.62,10.1,10.1,0,0,1-2.26,3.63,9.94,9.94,0,0,1-3.53,2.33,12.63,12.63,0,0,1-4.61.8,12,12,0,0,1-4.57-.82,10,10,0,0,1-3.52-2.34,10.28,10.28,0,0,1-2.26-3.61,14.22,14.22,0,0,1,0-9.26,10.16,10.16,0,0,1,2.24-3.61,9.85,9.85,0,0,1,3.53-2.31,13.33,13.33,0,0,1,9.18,0,10,10,0,0,1,5.8,6A13.31,13.31,0,0,1,76.19,38.1Zm-5.62,0a8.43,8.43,0,0,0-1.51-5.33,4.89,4.89,0,0,0-4-1.91,5.07,5.07,0,0,0-2.89.85,5.37,5.37,0,0,0-1.93,2.52,10.21,10.21,0,0,0-.68,3.87,10.25,10.25,0,0,0,.67,3.84,5.46,5.46,0,0,0,1.91,2.51,4.94,4.94,0,0,0,2.92.87,4.87,4.87,0,0,0,4-1.92A8.38,8.38,0,0,0,70.57,38.1Z"/><path class="cls-3" d="M94.54,46.92,89.6,38.8l-3,2.87v4.45a3.4,3.4,0,0,1-.85,2.49,2.65,2.65,0,0,1-2,.87,2.53,2.53,0,0,1-2-.86A3.81,3.81,0,0,1,81,46.08V22.21a4.75,4.75,0,0,1,.71-2.84,2.4,2.4,0,0,1,2-1,2.54,2.54,0,0,1,2,.88,3.84,3.84,0,0,1,.76,2.6V35.46l6.3-6.61a15.51,15.51,0,0,1,1.78-1.68,2.47,2.47,0,0,1,1.5-.45,2.38,2.38,0,0,1,1.74.67,2.19,2.19,0,0,1,.7,1.67c0,.82-.76,1.91-2.28,3.28l-3,2.73,5.74,9c.43.67.73,1.18.92,1.53a2.17,2.17,0,0,1,.27,1,2.94,2.94,0,0,1-.73,2.11,2.5,2.5,0,0,1-1.91.76A2.12,2.12,0,0,1,96,48.93,13.46,13.46,0,0,1,94.54,46.92Z"/><path class="cls-3" d="M121.65,42.16a6.5,6.5,0,0,1-4.46,6.47,14.88,14.88,0,0,1-5.36.85,13,13,0,0,1-5.17-.92,7.58,7.58,0,0,1-3.18-2.3,4.68,4.68,0,0,1-1-2.78,2.16,2.16,0,0,1,.65-1.58,2.25,2.25,0,0,1,1.66-.66,2,2,0,0,1,1.36.43,4.94,4.94,0,0,1,.9,1.21,6.16,6.16,0,0,0,2.06,2.24,6.23,6.23,0,0,0,3.27.74,4.73,4.73,0,0,0,2.76-.75,2.11,2.11,0,0,0,1.08-1.72,2.34,2.34,0,0,0-1.12-2.15A13.92,13.92,0,0,0,111.4,40a30.23,30.23,0,0,1-4.71-1.51,7.65,7.65,0,0,1-2.9-2.08,4.79,4.79,0,0,1-1.09-3.18,5.62,5.62,0,0,1,1-3.18,6.94,6.94,0,0,1,3-2.39,11.44,11.44,0,0,1,4.73-.89,15.62,15.62,0,0,1,3.91.45,10,10,0,0,1,2.89,1.21A6.06,6.06,0,0,1,120,30.06a3.35,3.35,0,0,1,.61,1.81,2.1,2.1,0,0,1-.65,1.58,2.56,2.56,0,0,1-1.84.61,2.22,2.22,0,0,1-1.46-.49,9.33,9.33,0,0,1-1.39-1.48,5.16,5.16,0,0,0-1.49-1.31,4.73,4.73,0,0,0-2.34-.49,4.58,4.58,0,0,0-2.52.65,1.88,1.88,0,0,0-1,1.61,1.74,1.74,0,0,0,.74,1.44,5.86,5.86,0,0,0,2,.93c.83.25,2,.55,3.44.91a18.59,18.59,0,0,1,4.26,1.51,7.13,7.13,0,0,1,2.5,2.09A4.58,4.58,0,0,1,121.65,42.16Z"/><path class="cls-3" d="M126.7,27.21h.61V23.85c0-.9,0-1.61.07-2.12a3.3,3.3,0,0,1,.4-1.33,2.57,2.57,0,0,1,.95-.93,2.67,2.67,0,0,1,1.37-.36,2.78,2.78,0,0,1,1.93.8,2.46,2.46,0,0,1,.73,1.3,12.28,12.28,0,0,1,.15,2.19v3.81H135a2.63,2.63,0,0,1,1.82.57,1.87,1.87,0,0,1,.62,1.44,1.62,1.62,0,0,1-.89,1.58,5.79,5.79,0,0,1-2.55.45h-1.05v10.3a17.16,17.16,0,0,0,.09,2,2.06,2.06,0,0,0,.5,1.15,1.68,1.68,0,0,0,1.3.44,6.71,6.71,0,0,0,1.33-.18,7.41,7.41,0,0,1,1.31-.17,1.69,1.69,0,0,1,1.22.54,1.82,1.82,0,0,1,.55,1.35,2.26,2.26,0,0,1-1.48,2.07,10,10,0,0,1-4.24.71,7.32,7.32,0,0,1-4-.88,4,4,0,0,1-1.78-2.44,16.53,16.53,0,0,1-.42-4.16V31.25h-.74a2.67,2.67,0,0,1-1.84-.57,1.86,1.86,0,0,1-.64-1.46,1.79,1.79,0,0,1,.67-1.44A2.9,2.9,0,0,1,126.7,27.21Z"/><path class="cls-3" d="M162.22,38.1a13.26,13.26,0,0,1-.78,4.62,10.1,10.1,0,0,1-2.26,3.63,9.94,9.94,0,0,1-3.53,2.33,12.63,12.63,0,0,1-4.61.8,12,12,0,0,1-4.57-.82A10,10,0,0,1,143,46.32a10.28,10.28,0,0,1-2.26-3.61,14.22,14.22,0,0,1,0-9.26,10.16,10.16,0,0,1,2.24-3.61,9.85,9.85,0,0,1,3.53-2.31,13.33,13.33,0,0,1,9.18,0,10,10,0,0,1,5.8,6A13.31,13.31,0,0,1,162.22,38.1Zm-5.62,0a8.37,8.37,0,0,0-1.51-5.33A4.89,4.89,0,0,0,151,30.86a5.07,5.07,0,0,0-2.89.85,5.37,5.37,0,0,0-1.93,2.52,10.21,10.21,0,0,0-.68,3.87,10.25,10.25,0,0,0,.67,3.84,5.46,5.46,0,0,0,1.91,2.51,4.94,4.94,0,0,0,2.92.87,4.87,4.87,0,0,0,4.05-1.92A8.31,8.31,0,0,0,156.6,38.1Z"/><path class="cls-3" d="M172.18,41.4v4.68a3.55,3.55,0,0,1-.8,2.55,2.65,2.65,0,0,1-2,.85,2.55,2.55,0,0,1-2-.86,3.66,3.66,0,0,1-.78-2.54V30.49q0-3.76,2.73-3.77a2.29,2.29,0,0,1,2,.88,4.88,4.88,0,0,1,.68,2.61,9.93,9.93,0,0,1,2.06-2.61,4.29,4.29,0,0,1,2.82-.88,7.25,7.25,0,0,1,3.42.88A2.65,2.65,0,0,1,182,29.94a2.23,2.23,0,0,1-.71,1.69,2.17,2.17,0,0,1-1.53.67,7.41,7.41,0,0,1-1.49-.38,7,7,0,0,0-2.08-.38,3.05,3.05,0,0,0-2,.65,4.17,4.17,0,0,0-1.21,1.91,13.91,13.91,0,0,0-.59,3C172.24,38.3,172.18,39.72,172.18,41.4Z"/><path class="cls-3" d="M199.6,39.48H188.65a7.36,7.36,0,0,0,.77,3.36,5.25,5.25,0,0,0,2,2.19,5.19,5.19,0,0,0,2.74.74,6.94,6.94,0,0,0,1.83-.23,6.14,6.14,0,0,0,1.61-.74A12.29,12.29,0,0,0,199,43.72c.44-.38,1-.9,1.7-1.56a1.88,1.88,0,0,1,1.23-.37,2,2,0,0,1,1.4.48,1.68,1.68,0,0,1,.53,1.33,3.57,3.57,0,0,1-.6,1.77,6.85,6.85,0,0,1-1.79,2,10.24,10.24,0,0,1-3,1.55,13,13,0,0,1-4.18.61q-5.38,0-8.39-3.07a11.48,11.48,0,0,1-3-8.35,14,14,0,0,1,.74-4.6,10.1,10.1,0,0,1,2.15-3.64,9.36,9.36,0,0,1,3.49-2.33,12.5,12.5,0,0,1,4.59-.81,10.9,10.9,0,0,1,5.63,1.38,9.16,9.16,0,0,1,3.52,3.58,9.44,9.44,0,0,1,1.17,4.47c0,1.41-.41,2.33-1.21,2.74A7.51,7.51,0,0,1,199.6,39.48ZM188.65,36.3H198.8a6.74,6.74,0,0,0-1.55-4.3,4.61,4.61,0,0,0-3.53-1.42A4.5,4.5,0,0,0,190.28,32,7.24,7.24,0,0,0,188.65,36.3Z"/></g></g></svg>